<svg xmlns="http://www.w3.org/2000/svg" xmlns:xlink="http://www.w3.org/1999/xlink" aria-hidden="true" role="img" class="iconify iconify--logos" width="31.88" height="32" preserveAspectRatio="xMidYMid meet" viewBox="0 0 256 257"><defs><linearGradient id="IconifyId1813088fe1fbc01fb466" x1="-.828%" x2="57.636%" y1="7.652%" y2="78.411%"><stop offset="0%" stop-color="#41D1FF"></stop><stop offset="100%" stop-color="#BD34FE"></stop></linearGradient><linearGradient id="IconifyId1813088fe1fbc01fb467" x1="43.376%" x2="50.316%" y1="2.242%" y2="89.03%"><stop offset="0%" stop-color="#FFBD4F"></stop><stop offset="100%" stop-color="#FF980E"></stop></linearGradient></defs><path fill="url(#IconifyId1813088fe1fbc01fb466)" d="M255.153 37.938L134.897 252.976c-2.483 4.44-8.862 4.466-11.382.048L.875 37.958c-2.746-4.814 1.371-10.646 6.827-9.67l120.385 21.517a6.537 6.537 0 0 0 2.322-.004l117.867-21.483c5.438-.991 9.574 4.796 6.877 9.62Z"></path><path fill="url(#IconifyId1813088fe1fbc01fb467)" d="M185.432.063L96.44 17.501a3.268 3.268 0 0 0-2.634 3.014l-5.474 92.456a3.268 3.268 0 0 0 3.997 3.378l24.777-5.718c2.318-.535 4.413 1.422 3.997 3.378l-7.316 123.57c-.495 2.354 1.794 4.414 4.003 3.378l55.256-25.823c2.208-1.036 2.208-4.72 0-5.756l-49.256-23.086c-2.208-1.035-2.307-4.225-.198-5.38l34.869-19.365c2.109-1.172 2.811-4.345.94-5.632l-65.038-45.305c-1.87-1.287-1.215-4.46.94-5.632l121.72-67.6c2.154-1.197 4.858.242 4.61 2.74l-14.7 124.276c-.248 2.098 1.703 3.896 3.845 3.896h20.03c2.142 0 4.093-1.798 3.845-3.896L188.16 2.401c-.39-2.741-3.235-4.602-5.94-3.872Z"></path></svg>
